<?xml version="1.0" encoding="utf-8"?>
<!-- Generator: Adobe Illustrator 16.0.0, SVG Export Plug-In . SVG Version: 6.00 Build 0)  -->
<!DOCTYPE svg PUBLIC "-//W3C//DTD SVG 1.1//EN" "http://www.w3.org/Graphics/SVG/1.1/DTD/svg11.dtd">
<svg version="1.1" id="Layer_1" xmlns="http://www.w3.org/2000/svg" xmlns:xlink="http://www.w3.org/1999/xlink" x="0px" y="0px"
	 width="824.544px" height="955.102px" viewBox="0 0 824.544 955.102" enable-background="new 0 0 824.544 955.102"
	 xml:space="preserve">
<g>
	<path fill="#1992CD" d="M754.689,307.293c-6.449-3.637-13.652-6.594-21.102-9.398c-7.172,1.375-16.02,0.688-23.754-0.301
		L583.471,512.832c0,0-33.387,44.449-73.316,15.52c-15.34-12.145-20.871-25.801-20.895-39.152l-10.875,6.414l-13.148-19.25l0,0
		l33.43,302.496c-4.531,6.672-10.789,12.289-18.121,17.043c1.352,29.063,2.504,59.426,3.473,90.211
		c52.262-8.262,102.73-25.598,144.695-57.484c39.348-29.902,54.637-54.125,59.75-100.891c4.863-44.465-4.988-79.039,23.598-115.742
		c43.883-56.352,101.672-66.605,110.848-148.676C829.982,400.051,815.342,341.469,754.689,307.293z"/>
	<path fill="#1992CD" d="M95.467,445.512L68.58,418.754l69.535-110.082c21.34-42.863,71.727-46.859,71.727-46.859l78.094-27.383l0,0
		l0.258-0.086v-6.5c-1.898-0.125-3.727-0.395-5.441-0.848c-19.27-5.125-29.742-56.457-21.898-77.691
		c-0.09-0.926-0.16-1.836-0.246-2.758c-0.008-0.043-0.02-0.086-0.023-0.129c0.004,0.008,0.012,0.008,0.016,0.012
		c-0.691-7.488-1.188-14.828-1.332-21.828c-0.238-0.926-0.441-1.734-0.621-2.332c-2.328-7.707-5.633-15.023-7.066-22.891
		c-0.18-0.996-0.332-2.008-0.453-3.043C156.033,109.809,59.932,145.691,25.9,243.668c-28.148,81.07,40.094,143.633,48.363,221.191
		C80.482,457.129,88.17,450.637,95.467,445.512z"/>
	<path fill="#1992CD" d="M143.299,782.508l21.078-262.867l-19.004,16.191c0,0-46.117,31.043-74.348-9.379
		c-0.969-1.527-1.801-3.02-2.609-4.512C50.111,580.902,0.275,626.281,0.002,692.813c-0.453,108.191,84.57,157.418,182.66,180.027
		c0.434-21.848,1.027-42.664,1.723-62.27C146.357,798.883,143.299,782.508,143.299,782.508z"/>
	<path fill="#1992CD" d="M332.088,890.902c3.539,0.152,7.039,0.289,10.508,0.41l-6.398-88.102L332.088,890.902z"/>
	<path fill="#1992CD" d="M359.045,191.25c-0.508-0.371-1.016-0.773-1.527-1.215v44.309l42.367,13.801
		c0,0,75.34,7.898,112.301,70.566l45.883,72.777L671.967,283c-0.746-4.91,1.09-10.684,4.023-16.254
		c-2.387-2.75-4.582-5.734-6.469-9.086c-13.824-24.594-6.375-55.309-22.203-82.609c-50.637-87.328-161.816-93.504-259.359-89.188
		c1.301,4.223,2.191,9.07,2.398,14.84C388.279,124.32,371.818,167.719,359.045,191.25z"/>
	<path fill="#273C54" d="M363.619,821.652l-5.676-103.883l-73.375-0.391l-0.688,22.227c-0.023,0.609-0.52,1.09-1.125,1.09h-0.039
		c-0.621-0.023-1.109-0.539-1.09-1.164l0.453-14.711l-3.387,97.234c-44.355-0.441-74.211-5.309-94.309-11.484
		c-0.695,19.605-1.289,40.422-1.723,62.27c-0.523,26.059-0.824,53.555-0.797,82.262h147.211l3.012-64.199l4.109-87.691l6.398,88.102
		l4.629,63.789h138.68c-0.539-22.977-1.168-46.094-1.887-68.988c-0.969-30.785-2.121-61.148-3.473-90.211
		C439.314,822.637,363.619,821.652,363.619,821.652z"/>
	<path fill="#E57E77" d="M324.943,214.883c12.785-1.801,25.52-5.379,32.508-12.441l0.023-12.438
		c-4.508-3.875-9.105-10.285-11.535-16.934C346.912,190.484,337.525,205.121,324.943,214.883z"/>
	<path fill="#192040" d="M352.271,131.254c6.398-4.277,11.621-1.891,14.367,1.77c3.68,4.891,3.914,12.969-2.07,18.012
		c-0.48,0.398-0.535,1.113-0.141,1.59l0.867,0.398l0.723-0.27c7.008-5.902,6.73-15.355,2.43-21.086
		c-3.223-4.277-9.715-7.438-17.426-2.285c-0.52,0.348-0.66,1.043-0.309,1.566C351.053,131.461,351.756,131.602,352.271,131.254z"/>
	<path fill="#192040" d="M362.1,136.27c-3.34-0.508-6.418,2.328-7.742,5.555c0.227,0.309,0.457,0.625,0.695,0.84
		c0.277,0.254,0.66,0.531,1.086,0.797c0-0.012,0.012-0.012,0.016-0.02c0.754-2.641,3.25-5.336,5.582-4.945
		c0.629,0.098,1.199-0.324,1.293-0.938C363.131,136.945,362.709,136.367,362.1,136.27z"/>
	<path fill="#192040" d="M354.357,141.824c-0.977-1.336-1.773-3.344-1.539-4.629c0.117-0.609-0.285-1.199-0.895-1.316
		c-0.602-0.105-1.203,0.289-1.313,0.902c-0.469,2.461,1.168,5.957,2.926,7.555c1.223,1.105,3.93,2.656,6.504,2.656l0.918-0.07
		c0.617-0.094,1.039-0.676,0.934-1.289c-0.098-0.613-0.668-1.027-1.289-0.938c-1.43,0.234-3.195-0.457-4.465-1.234
		c-0.426-0.266-0.809-0.543-1.086-0.797C354.814,142.449,354.584,142.133,354.357,141.824z"/>
	<path fill="#192040" d="M307.361,120.586c-2.422-0.07-4.711,1.25-6.422,3.902c-0.34,0.527-0.184,1.223,0.336,1.559
		c0.523,0.34,1.219,0.191,1.555-0.336c1.258-1.938,2.785-2.977,4.41-2.875c1.883,0.102,3.711,1.738,5.148,4.605l1.004,0.621
		l0.5-0.121c0.563-0.277,0.785-0.953,0.504-1.508C312.592,122.809,310.088,120.738,307.361,120.586z"/>
	<path fill="#192040" d="M266.174,128.063l1.012-0.621c1.434-2.867,3.262-4.504,5.145-4.605c1.609-0.102,3.152,0.938,4.406,2.875
		c0.336,0.52,1.031,0.676,1.559,0.336c0.52-0.336,0.672-1.031,0.336-1.559c-1.711-2.652-3.992-3.977-6.422-3.902
		c-2.727,0.152-5.227,2.223-7.039,5.848c-0.285,0.555-0.051,1.23,0.5,1.508L266.174,128.063z"/>
	<g>
		<path fill="#743420" d="M387.959,85.863c-7.77-25.309-31.742-25.152-31.742-25.152c4.855-27.934-9.23-30.664-9.23-30.664
			c-10.344-0.371-14.461,11.48-14.461,11.48c0-22.539-19.133-26.5-19.133-26.5c-12.176,0-21.34,8.262-21.34,8.262
			C290.588,12.02,275.119,0,275.119,0c-23.664,9.766-15.898,42.07-15.898,42.07l-12.281-8.262
			c-8.387,17.734-0.824,30.305,11.324,38.598c-1.324,0.891-2.434,1.898-3.211,3.016c-4.102,5.934-4.762,13.813-3.926,20.914
			c0.121,1.035,0.273,2.047,0.453,3.043c1.434,7.867,4.738,15.184,7.066,22.891c0.18,0.598,0.383,1.406,0.621,2.332
			c-0.379-19.086,1.922-35.641,9.902-46.277c12.535,5.418,26.27,7.508,32.773,6.887c14.027-1.348,18.82-0.742,23.586,12.926
			c2.59,7.418,3.496,14.891,5.328,22.613c0.211,0.887,1.09,2.977,2.148,5.434c-0.258-0.012-0.477,0.145-0.586,0.75
			c-0.41,2.199-0.602,9.629-1.168,11.789c-0.973,3.801-2.297,8.059-5.184,10.906c-7.422,7.32-15.77,3.906-23.727-0.461
			c-7.172-3.941-16.785-5.469-24.656-3.301c-4.652,1.281-6.363,3.082-10.98,4.32c-2.441,0.656-4.445-1.145-6.105-3.758
			c-0.004-0.004-0.012-0.004-0.016-0.012c0.004,0.043,0.016,0.086,0.023,0.129c0.117,0.922,0.57,1.891,0.246,2.758
			c-7.844,21.234,2.629,72.566,21.898,77.691c1.715,0.453,3.543,0.723,5.441,0.848c11.266,0.762,25.313-4.082,36.75-12.961
			c12.582-9.762,21.969-24.398,20.996-41.813c2.43,6.648,7.027,13.059,11.535,16.934c0.016,0.012,0.031,0.02,0.043,0.031
			c0.512,0.441,1.02,0.844,1.527,1.215c12.773-23.531,29.234-66.93,31.313-90.547C390.15,94.934,389.26,90.086,387.959,85.863z
			 M296.412,154.902c-2.547,2.707-5.859,3.801-9.23,3.801c-3.156,0-6.363-0.957-9.043-2.461c-0.547-0.305-0.742-0.992-0.43-1.531
			c0.297-0.547,0.984-0.738,1.531-0.434c4.777,2.68,11.438,3.434,15.527-0.918c0.434-0.453,1.141-0.473,1.598-0.047
			C296.818,153.738,296.838,154.449,296.412,154.902z M361.033,163.992c-5.852,0.93-11.523-1.32-15.832-5.512
			c-0.043,0.105-0.07,0.211-0.109,0.32c-0.582,1.578-0.836,3.273-0.867,5.023c-1.715-2.32-2.469-4.863-4.168-7.969
			c-2.75-5.039-2.688-8.875-2.086-12.875c-0.145-1.492-0.168-2.961-0.066-4.406c0.727-9.895,7.051-18.129,15.98-19.547
			c10.699-1.703,20.965,6.984,22.938,19.406C378.795,150.844,371.721,162.289,361.033,163.992z"/>
		<path fill="#743420" d="M311.088,115.945c3.465,0.707,7.762,1.684,11.305,0.23c1.527-0.625-0.539-4.18-1.117-4.754
			c-1.461-1.449-4.059-1.77-5.965-2.137c-4.84-0.918-12.148-2.297-16.77-0.48c-4.773,1.879-1.953,5.285,1.824,5.797
			C303.939,115.09,307.439,115.211,311.088,115.945z"/>
		<path fill="#743420" d="M276.959,115.285c3.215,0.293,7.223,0.754,10.184-1.086c1.277-0.801-1.113-4.07-1.727-4.57
			c-1.52-1.258-3.902-1.277-5.664-1.414c-4.496-0.344-11.266-0.855-15.137,1.477c-3.996,2.41-0.953,5.445,2.516,5.516
			C270.42,115.266,273.58,114.984,276.959,115.285z"/>
	</g>
	<path fill="#192040" d="M280.721,134.238c3.652-2.668,8.008-7.238,8.055-13.93c0.004-0.621-0.504-1.125-1.121-1.133h-0.012
		c-0.617,0-1.121,0.5-1.125,1.121c-0.035,5.75-3.891,9.766-7.129,12.113c-1.25,0.914-2.488,1.934-2.641,3.391
		c-0.133,1.348,0.734,2.48,1.398,3.215c1.555,1.715,2.121,2.152,7.383,5.098l0.547,0.141l0.984-0.574
		c0.305-0.543,0.109-1.23-0.43-1.535c-5.09-2.844-5.457-3.148-6.816-4.637c-0.574-0.637-0.859-1.148-0.824-1.477
		C279.045,135.52,279.939,134.801,280.721,134.238z"/>
	<path fill="#E89723" d="M345.24,485.426l-6.609-92.863c-0.051-0.617,0.422-1.16,1.043-1.203c0.164-0.016,0.293,0.09,0.434,0.141
		l-0.855-15.684c-1.332-0.617-2.641-1.246-3.91-1.875l-42.293,36.043l-0.957,27.445c0.625,0.023,1.105,0.543,1.09,1.164
		l-8.613,278.785l73.375,0.391L345.24,485.426z"/>
	<path fill="#E89723" d="M335.686,319.406c1.035-0.387,2.176-0.66,3.367-0.883l21.004-83.348l-2.539-0.832l-44.125,30.227
		l-25.199-30.227l-0.258,0.086l7.656,102.605l-0.523,14.918l9.281-4.223C306.725,334.98,327.713,322.43,335.686,319.406z"/>
	<g>
		<path fill="#2B59A8" d="M287.936,234.43l-78.094,27.383c0,0-50.387,3.996-71.727,46.859L68.58,418.754l26.887,26.758
			c12.676-8.91,24.078-13.715,24.078-13.715l144.992-65.957l-30.129-66.648c-0.223-0.48-0.078-1.043,0.344-1.359l16.988-12.898
			l-5.785-24.262c-0.148-0.605,0.227-1.207,0.832-1.355c0.609-0.145,1.211,0.23,1.355,0.836l5.961,24.977l-0.414,1.16
			l-16.855,12.793l29.758,65.828l28.477-12.957l0.523-14.918L287.936,234.43L287.936,234.43z"/>
		<path fill="#2B59A8" d="M143.299,782.508c0,0,3.059,16.375,41.086,28.063c20.098,6.176,49.953,11.043,94.309,11.484l3.387-97.234
			l8.844-286.293c0.023-0.629,0.523-1.078,1.164-1.098c0.004,0,0.004,0,0.004,0l0.957-27.445L164.377,519.641L143.299,782.508z"/>
		<path fill="#2B59A8" d="M512.186,318.711c-36.961-62.668-112.301-70.566-112.301-70.566c-0.02,0.02-0.031,0.051-0.059,0.074
			l-39.77-13.047v0.004l-21.004,83.348c6.934-1.285,16.336-0.332,25.336-3.125c2.754-0.855,4.391-0.969,5.59-0.652l7.629-1.574
			l1.469-3.199l-20.043-16.133c-0.395-0.316-0.523-0.863-0.32-1.328l10.648-24.234c0.254-0.57,0.914-0.828,1.492-0.586
			c0.566,0.254,0.828,0.918,0.574,1.488l-10.305,23.449l20.051,16.141c0.402,0.32,0.535,0.875,0.316,1.344l-1.145,2.488l8.504-1.754
			l26.867-5.551c0,0,5.211,9.07-25.695,18.918c-2.84,0.898-6.008,1.816-9.492,2.727l5.125,8.18
			c-0.391,7.195-0.371,12.242-0.336,16.082c0.375,0.012,0.734,0.137,0.941,0.484c0.32,0.535,0.141,1.227-0.391,1.543
			c-0.16,0.094-0.359,0.191-0.535,0.285c0.035,6.176-0.23,8.793-3.285,13.129c0.188,0.125,0.371,0.266,0.449,0.492
			c0.203,0.582-0.098,1.227-0.684,1.438c-0.496,0.18-1.066,0.352-1.609,0.52c-1.82,2.27-4.262,5.055-7.578,8.859
			c-7.082,8.117-21.277,3.5-33.375-2.137l0.855,15.684c0.402,0.141,0.734,0.445,0.77,0.902l11.98,168.277
			c0.043,0.621-0.43,1.164-1.047,1.207h-0.078c-0.586,0-1.082-0.453-1.121-1.047l-5.371-75.414l12.703,232.344l5.676,103.883
			c0,0,75.695,0.984,116.926-25.75c7.332-4.754,13.59-10.371,18.121-17.043l-33.43-302.496l13.148,19.25l10.875-6.414
			c-0.074-34.074,35.688-66.172,35.688-66.172l33.121-31.539L512.186,318.711z"/>
	</g>
	<path fill="#192040" d="M381.49,310.113c0.219-0.469,0.086-1.023-0.316-1.344l-20.051-16.141l10.305-23.449
		c0.254-0.57-0.008-1.234-0.574-1.488c-0.578-0.242-1.238,0.016-1.492,0.586l-10.648,24.234c-0.203,0.465-0.074,1.012,0.32,1.328
		l20.043,16.133l-1.469,3.199l2.738-0.57L381.49,310.113z"/>
	<path fill="#192040" d="M253.689,286.289l0.414-1.16l-5.961-24.977c-0.145-0.605-0.746-0.98-1.355-0.836
		c-0.605,0.148-0.98,0.75-0.832,1.355l5.785,24.262l-16.988,12.898c-0.422,0.316-0.566,0.879-0.344,1.359l30.129,66.648l2.055-0.93
		l-29.758-65.828L253.689,286.289z"/>
	<path fill="#192040" d="M338.631,392.563l6.609,92.863l5.371,75.414c0.039,0.594,0.535,1.047,1.121,1.047h0.078
		c0.617-0.043,1.09-0.586,1.047-1.207l-11.98-168.277c-0.035-0.457-0.367-0.762-0.77-0.902c-0.141-0.051-0.27-0.156-0.434-0.141
		C339.053,391.402,338.58,391.945,338.631,392.563z"/>
	<path fill="#192040" d="M293.182,438.594c0.016-0.621-0.465-1.141-1.09-1.164c0,0,0,0-0.004,0c-0.641,0.02-1.141,0.469-1.164,1.098
		L282.08,724.82l-0.453,14.711c-0.02,0.625,0.469,1.141,1.09,1.164h0.039c0.605,0,1.102-0.48,1.125-1.09l0.688-22.227
		L293.182,438.594z"/>
	<path fill="#192040" d="M287.182,158.703c3.371,0,6.684-1.094,9.23-3.801c0.426-0.453,0.406-1.164-0.047-1.59
		c-0.457-0.426-1.164-0.406-1.598,0.047c-4.09,4.352-10.75,3.598-15.527,0.918c-0.547-0.305-1.234-0.113-1.531,0.434
		c-0.313,0.539-0.117,1.227,0.43,1.531C280.818,157.746,284.025,158.703,287.182,158.703z"/>
	<path fill="#192040" d="M724.604,257.32c0.109,0.535,0.574,0.91,1.102,0.91l0.223-0.023c6.184-1.223,12.582-2.488,19.066-10.75
		c0.379-0.484,0.297-1.191-0.195-1.578c-0.492-0.383-1.199-0.301-1.578,0.191c-5.977,7.594-11.688,8.73-17.73,9.93
		C724.877,256.117,724.479,256.711,724.604,257.32z"/>
	<path fill="#192040" d="M729.568,269.477c-0.602-0.168-1.23,0.16-1.406,0.758c-0.176,0.602,0.16,1.223,0.758,1.406
		c0.746,0.223,1.547,0.324,2.395,0.324c6.441,0,15.289-5.91,19.043-10.074c0.129-0.137,0.297-0.297,0.414-0.434
		c0.398-0.477,0.336-1.191-0.141-1.59c-0.301-0.258-0.684-0.258-1.043-0.145c-0.195,0.063-0.402,0.109-0.547,0.281
		C745.08,264.727,734.553,270.98,729.568,269.477z"/>
	<path fill="#192040" d="M750.564,275.527c-3.949,3.188-10.121,7.035-17.09,7.27c-0.617,0.023-1.105,0.543-1.086,1.164
		c0.027,0.609,0.527,1.09,1.133,1.09h0.039c6.824-0.234,12.848-3.582,17.063-6.734c0.465-0.348,0.93-0.699,1.352-1.039
		c0.492-0.391,0.566-1.098,0.172-1.586c-0.145-0.184-0.367-0.254-0.578-0.316C751.225,275.277,750.865,275.281,750.564,275.527z"/>
	<path fill="#192040" d="M363.775,339.781c-0.621-0.086-1.184,0.344-1.273,0.957c-0.086,0.621,0.344,1.191,0.957,1.273
		c2.297,0.32,4.629,0.648,7.086,0.648c4.234,0,8.863-0.961,14.453-4.547c0.52-0.336,0.672-1.039,0.34-1.559
		c-0.34-0.523-1.039-0.68-1.563-0.336C375.646,341.441,369.881,340.633,363.775,339.781z"/>
	<path fill="#192040" d="M363.201,353.855c-0.504-0.371-1.203-0.254-1.57,0.254c-0.367,0.5-0.25,1.207,0.254,1.574
		c1.836,1.324,4.492,1.852,7.414,1.852c5.68,0,12.352-1.996,16.035-4.02c0.176-0.094,0.375-0.191,0.535-0.285
		c0.531-0.316,0.711-1.008,0.391-1.543c-0.207-0.348-0.566-0.473-0.941-0.484c-0.203-0.004-0.418-0.023-0.609,0.09
		C379.412,354.453,367.428,356.898,363.201,353.855z"/>
	<path fill="#192040" d="M381.057,366.449c-4.781,1.719-11.871,3.336-18.523,1.27c-0.602-0.188-1.223,0.152-1.41,0.746
		c-0.184,0.59,0.152,1.223,0.746,1.41c2.457,0.758,4.961,1.066,7.395,1.066c4.027,0,7.813-0.844,10.941-1.848
		c0.543-0.168,1.113-0.34,1.609-0.52c0.586-0.211,0.887-0.855,0.684-1.438c-0.078-0.227-0.262-0.367-0.449-0.492
		C381.756,366.434,381.416,366.324,381.057,366.449z"/>
	<path fill="#F7ADA2" d="M360.057,235.176v-0.004l39.77,13.047c0.027-0.023,0.039-0.055,0.059-0.074l-42.367-13.801L360.057,235.176
		z"/>
	<path fill="#F7ADA2" d="M357.475,190.004l-0.023,12.438c-6.988,7.063-19.723,10.641-32.508,12.441
		c-11.438,8.879-25.484,13.723-36.75,12.961v6.5l25.199,30.227l44.125-30.227v-44.309
		C357.506,190.023,357.49,190.016,357.475,190.004z"/>
	<path fill="#F7ADA2" d="M340.057,155.855c1.699,3.105,2.453,5.648,4.168,7.969c0.031-1.75,0.285-3.445,0.867-5.023
		c0.039-0.109,0.066-0.215,0.109-0.32c4.309,4.191,9.98,6.441,15.832,5.512c10.688-1.703,17.762-13.148,15.789-25.559
		c-1.973-12.422-12.238-21.109-22.938-19.406c-8.93,1.418-15.254,9.652-15.98,19.547c-0.102,1.445-0.078,2.914,0.066,4.406
		C337.369,146.98,337.307,150.816,340.057,155.855z M361.736,138.496c-2.332-0.391-4.828,2.305-5.582,4.945
		c-0.004,0.008-0.016,0.008-0.016,0.02c1.27,0.777,3.035,1.469,4.465,1.234c0.621-0.09,1.191,0.324,1.289,0.938
		c0.105,0.613-0.316,1.195-0.934,1.289l-0.918,0.07c-2.574,0-5.281-1.551-6.504-2.656c-1.758-1.598-3.395-5.094-2.926-7.555
		c0.109-0.613,0.711-1.008,1.313-0.902c0.609,0.117,1.012,0.707,0.895,1.316c-0.234,1.285,0.563,3.293,1.539,4.629
		c1.324-3.227,4.402-6.063,7.742-5.555c0.609,0.098,1.031,0.676,0.93,1.289C362.936,138.172,362.365,138.594,361.736,138.496z
		 M351.021,129.383c7.711-5.152,14.203-1.992,17.426,2.285c4.301,5.73,4.578,15.184-2.43,21.086l-0.723,0.27l-0.867-0.398
		c-0.395-0.477-0.34-1.191,0.141-1.59c5.984-5.043,5.75-13.121,2.07-18.012c-2.746-3.66-7.969-6.047-14.367-1.77
		c-0.516,0.348-1.219,0.207-1.559-0.305C350.361,130.426,350.502,129.73,351.021,129.383z"/>
	<path fill="#F7ADA2" d="M260.854,149.305c0.324-0.867-0.129-1.836-0.246-2.758C260.693,147.469,260.764,148.379,260.854,149.305z"
		/>
	<path fill="#F7ADA2" d="M326.068,149.629c2.887-2.848,4.211-7.105,5.184-10.906c0.566-2.16,0.758-9.59,1.168-11.789
		c0.109-0.605,0.328-0.762,0.586-0.75c-1.059-2.457-1.938-4.547-2.148-5.434c-1.832-7.723-2.738-15.195-5.328-22.613
		c-4.766-13.668-9.559-14.273-23.586-12.926c-6.504,0.621-20.238-1.469-32.773-6.887c-7.98,10.637-10.281,27.191-9.902,46.277
		c0.145,7,0.641,14.34,1.332,21.828c1.66,2.613,3.664,4.414,6.105,3.758c4.617-1.238,6.328-3.039,10.98-4.32
		c7.871-2.168,17.484-0.641,24.656,3.301C310.299,153.535,318.646,156.949,326.068,149.629z M264.615,109.691
		c3.871-2.332,10.641-1.82,15.137-1.477c1.762,0.137,4.145,0.156,5.664,1.414c0.613,0.5,3.004,3.77,1.727,4.57
		c-2.961,1.84-6.969,1.379-10.184,1.086c-3.379-0.301-6.539-0.02-9.828-0.078C263.662,115.137,260.619,112.102,264.615,109.691z
		 M272.33,122.836c-1.883,0.102-3.711,1.738-5.145,4.605l-1.012,0.621l-0.504-0.121c-0.551-0.277-0.785-0.953-0.5-1.508
		c1.813-3.625,4.313-5.695,7.039-5.848c2.43-0.074,4.711,1.25,6.422,3.902c0.336,0.527,0.184,1.223-0.336,1.559
		c-0.527,0.34-1.223,0.184-1.559-0.336C275.482,123.773,273.939,122.734,272.33,122.836z M279.814,137.508
		c1.359,1.488,1.727,1.793,6.816,4.637c0.539,0.305,0.734,0.992,0.43,1.535l-0.984,0.574l-0.547-0.141
		c-5.262-2.945-5.828-3.383-7.383-5.098c-0.664-0.734-1.531-1.867-1.398-3.215c0.152-1.457,1.391-2.477,2.641-3.391
		c3.238-2.348,7.094-6.363,7.129-12.113c0.004-0.621,0.508-1.121,1.125-1.121h0.012c0.617,0.008,1.125,0.512,1.121,1.133
		c-0.047,6.691-4.402,11.262-8.055,13.93c-0.781,0.563-1.676,1.281-1.73,1.793C278.955,136.359,279.24,136.871,279.814,137.508z
		 M298.541,108.805c4.621-1.816,11.93-0.438,16.77,0.48c1.906,0.367,4.504,0.688,5.965,2.137c0.578,0.574,2.645,4.129,1.117,4.754
		c-3.543,1.453-7.84,0.477-11.305-0.23c-3.648-0.734-7.148-0.855-10.723-1.344C296.588,114.09,293.768,110.684,298.541,108.805z
		 M301.275,126.047c-0.52-0.336-0.676-1.031-0.336-1.559c1.711-2.652,4-3.973,6.422-3.902c2.727,0.152,5.23,2.223,7.035,5.848
		c0.281,0.555,0.059,1.23-0.504,1.508l-0.5,0.121l-1.004-0.621c-1.438-2.867-3.266-4.504-5.148-4.605
		c-1.625-0.102-3.152,0.938-4.41,2.875C302.494,126.238,301.799,126.387,301.275,126.047z"/>
	<path fill="#F69F93" d="M723.135,230.313c-1.234,0.094-2.738,0.738-5.059,2.445c-8.898,6.559-20.043,8.41-25.801,13.207
		c-4.035,3.375-11.566,11.809-16.285,20.781c-2.934,5.57-4.77,11.344-4.023,16.254L558.068,391.488l-33.121,31.539
		c0,0-35.762,32.098-35.688,66.172c0.023,13.352,5.555,27.008,20.895,39.152c39.93,28.93,73.316-15.52,73.316-15.52l126.363-215.238
		c7.734,0.988,16.582,1.676,23.754,0.301c5.953-1.145,10.754-3.711,12.785-8.742c1.879-4.672,3.27-8.098,4.25-10.836
		c-4.215,3.152-10.238,6.5-17.063,6.734h-0.039c-0.605,0-1.105-0.48-1.133-1.09c-0.02-0.621,0.469-1.141,1.086-1.164
		c6.969-0.234,13.141-4.082,17.09-7.27c0.301-0.246,0.66-0.25,1.004-0.152c1.461-5.094,0.852-7.66-1.211-13.484
		c-3.754,4.164-12.602,10.074-19.043,10.074c-0.848,0-1.648-0.102-2.395-0.324c-0.598-0.184-0.934-0.805-0.758-1.406
		c0.176-0.598,0.805-0.926,1.406-0.758c4.984,1.504,15.512-4.75,19.473-9.473c0.145-0.172,0.352-0.219,0.547-0.281
		c-1.289-3.617-2.973-8.375-4.961-15.305l-7.52-6.051c35.547-23.805,26.141-31.984,26.141-31.984L723.135,230.313z M743.221,246.07
		c0.379-0.492,1.086-0.574,1.578-0.191c0.492,0.387,0.574,1.094,0.195,1.578c-6.484,8.262-12.883,9.527-19.066,10.75l-0.223,0.023
		c-0.527,0-0.992-0.375-1.102-0.91c-0.125-0.609,0.273-1.203,0.887-1.32C731.533,254.801,737.244,253.664,743.221,246.07z"/>
	<path fill="#F69F93" d="M388.85,310.848l-8.504,1.754l-2.738,0.57l-7.629,1.574c-1.199-0.316-2.836-0.203-5.59,0.652
		c-9,2.793-18.402,1.84-25.336,3.125c-1.191,0.223-2.332,0.496-3.367,0.883c-7.973,3.023-28.961,15.574-31.336,28.324l-9.281,4.223
		l-28.477,12.957l-2.055,0.93l-144.992,65.957c0,0-11.402,4.805-24.078,13.715c-7.297,5.125-14.984,11.617-21.203,19.348
		c-11.891,14.781-18.285,34.09-5.848,57.082c0.809,1.492,1.641,2.984,2.609,4.512c28.23,40.422,74.348,9.379,74.348,9.379
		l19.004-16.191l128.672-109.656l42.293-36.043c1.27,0.629,2.578,1.258,3.91,1.875c12.098,5.637,26.293,10.254,33.375,2.137
		c3.316-3.805,5.758-6.59,7.578-8.859c-3.129,1.004-6.914,1.848-10.941,1.848c-2.434,0-4.938-0.309-7.395-1.066
		c-0.594-0.188-0.93-0.82-0.746-1.41c0.188-0.594,0.809-0.934,1.41-0.746c6.652,2.066,13.742,0.449,18.523-1.27
		c0.359-0.125,0.699-0.016,0.992,0.195c3.055-4.336,3.32-6.953,3.285-13.129c-3.684,2.023-10.355,4.02-16.035,4.02
		c-2.922,0-5.578-0.527-7.414-1.852c-0.504-0.367-0.621-1.074-0.254-1.574c0.367-0.508,1.066-0.625,1.57-0.254
		c4.227,3.043,16.211,0.598,21.508-2.563c0.191-0.113,0.406-0.094,0.609-0.09c-0.035-3.84-0.055-8.887,0.336-16.082l-5.125-8.18
		c3.484-0.91,6.652-1.828,9.492-2.727c30.906-9.848,25.695-18.918,25.695-18.918L388.85,310.848z M383.775,336.219
		c0.523-0.344,1.223-0.188,1.563,0.336c0.332,0.52,0.18,1.223-0.34,1.559c-5.59,3.586-10.219,4.547-14.453,4.547
		c-2.457,0-4.789-0.328-7.086-0.648c-0.613-0.082-1.043-0.652-0.957-1.273c0.09-0.613,0.652-1.043,1.273-0.957
		C369.881,340.633,375.646,341.441,383.775,336.219z"/>
</g>
</svg>
