<?xml version="1.0" standalone="no"?>
<!DOCTYPE svg PUBLIC "-//W3C//DTD SVG 20010904//EN"
 "http://www.w3.org/TR/2001/REC-SVG-20010904/DTD/svg10.dtd">
<svg version="1.0" xmlns="http://www.w3.org/2000/svg"
 width="1088.000000pt" height="1088.000000pt" viewBox="0 0 1088.000000 1088.000000"
 preserveAspectRatio="xMidYMid meet">
<metadata>
Created by potrace 1.14, written by Peter Selinger 2001-2017
</metadata>
<g transform="translate(0.000000,1088.000000) scale(0.100000,-0.100000)"
fill="#000000" stroke="none">
<path d="M5555 9964 c-55 -37 -125 -105 -125 -123 0 -21 -30 -51 -45 -45 -7 3
-28 -14 -46 -37 -36 -46 -125 -135 -180 -182 -19 -16 -75 -68 -124 -115 -119
-114 -179 -168 -240 -217 -27 -21 -110 -98 -183 -171 -74 -72 -143 -136 -155
-141 -12 -6 -83 -69 -158 -141 -74 -72 -157 -148 -185 -169 -27 -22 -55 -47
-62 -56 -12 -15 -17 -14 -50 3 -20 11 -82 65 -137 121 -54 56 -108 107 -120
114 -32 19 -1050 14 -1086 -5 -26 -15 -157 -130 -254 -224 -27 -26 -63 -58
-80 -69 -16 -11 -59 -49 -95 -83 -76 -73 -98 -92 -176 -159 -74 -63 -148 -131
-244 -222 -87 -82 -124 -113 -138 -113 -6 0 -65 -53 -132 -117 -67 -65 -133
-125 -146 -134 -13 -8 -55 -43 -92 -77 -37 -34 -103 -95 -146 -135 -43 -39
-113 -106 -155 -148 -109 -110 -287 -269 -300 -269 -14 0 -126 -101 -173 -156
-9 -10 -40 -39 -69 -64 -30 -25 -85 -74 -124 -110 -38 -36 -97 -87 -130 -115
-32 -27 -89 -78 -124 -112 -36 -35 -69 -63 -73 -63 -13 0 -9 -47 5 -58 7 -6
80 -10 177 -10 174 0 200 6 246 52 11 12 47 45 80 74 32 30 79 72 104 95 64
59 112 102 210 187 47 41 110 98 140 126 30 29 77 72 104 95 28 24 59 55 70
67 12 13 37 32 56 42 19 11 67 50 106 88 40 38 100 92 135 121 34 29 78 73 98
99 53 69 198 210 325 317 33 28 87 75 120 106 34 31 77 69 96 85 19 16 57 50
85 75 27 25 63 57 79 70 62 52 203 174 241 210 22 21 51 47 65 59 14 12 35 30
48 41 13 11 20 24 17 29 -8 13 25 27 63 25 33 -2 86 -41 77 -56 -3 -4 9 -18
27 -30 18 -12 58 -45 89 -73 92 -85 175 -159 229 -206 88 -76 192 -170 250
-224 30 -28 72 -65 93 -83 20 -18 37 -38 37 -45 0 -14 159 -154 170 -151 4 1
25 -14 46 -33 21 -20 79 -73 129 -117 133 -121 254 -239 253 -246 -2 -21 5
-32 30 -45 15 -8 54 -40 87 -73 33 -32 98 -91 145 -132 47 -40 159 -146 250
-235 159 -156 216 -206 243 -210 7 -1 24 -12 38 -25 13 -13 48 -35 77 -48 57
-27 76 -28 357 -18 61 2 351 5 645 6 344 1 542 5 555 12 11 6 65 52 120 104
55 51 105 93 112 93 7 0 17 10 24 23 6 12 91 103 189 202 98 99 234 237 302
306 67 69 137 133 153 143 17 10 41 32 53 49 47 67 110 133 470 490 213 211
297 287 314 287 13 0 42 -17 64 -38 241 -217 328 -292 338 -292 5 0 34 -26 65
-57 31 -32 101 -95 156 -141 55 -46 118 -100 141 -120 22 -20 56 -50 75 -67
51 -43 155 -134 288 -252 64 -56 123 -103 132 -103 9 0 39 -21 67 -47 28 -27
76 -70 106 -96 31 -26 55 -51 55 -55 -4 -27 7 -44 49 -71 27 -17 59 -42 72
-56 13 -14 28 -25 33 -25 9 0 43 -28 142 -115 17 -15 58 -52 93 -82 110 -97
90 -90 257 -93 313 -6 451 -5 478 3 58 16 25 64 -128 185 -38 31 -83 68 -100
83 -159 148 -292 269 -325 295 -19 15 -57 49 -85 75 -109 104 -162 152 -195
181 -129 110 -175 153 -255 234 -49 50 -95 97 -101 105 -6 8 -57 57 -114 109
-131 121 -116 108 -180 160 -30 24 -80 70 -110 101 -30 32 -60 59 -67 61 -6 1
-60 48 -120 104 -59 56 -135 124 -168 151 -33 28 -87 77 -121 109 -76 74 -217
202 -309 281 -38 34 -88 80 -110 103 -22 23 -62 58 -89 77 l-48 36 -127 3
c-69 1 -132 2 -139 3 -8 1 -117 103 -243 229 -126 125 -254 249 -284 276 -30
27 -55 55 -55 63 0 17 -67 89 -337 363 l-212 215 -618 3 -618 2 -40 -26z
m1347 -894 c196 -197 216 -220 191 -221 -15 0 -116 -1 -223 -2 -175 -2 -199
-4 -225 -21 -35 -23 -185 -176 -185 -190 0 -13 -193 -206 -206 -206 -9 0 -527
-510 -631 -621 -17 -19 -95 -96 -172 -173 -157 -154 -211 -215 -211 -240 0
-33 -69 -12 -111 34 -8 9 -49 53 -92 98 -76 78 -87 102 -48 102 10 0 31 16 46
36 15 19 302 311 639 648 336 338 647 651 691 696 70 72 199 194 274 259 13
12 29 21 34 21 6 0 109 -99 229 -220z"/>
<path d="M4972 6129 c-69 -7 -103 -30 -144 -99 -12 -19 -61 -98 -108 -175 -48
-77 -107 -176 -131 -220 -23 -44 -99 -174 -167 -290 -68 -115 -133 -226 -144
-245 -11 -19 -42 -72 -70 -117 -51 -85 -63 -119 -48 -128 5 -3 4 -20 -2 -38
-13 -37 -96 -161 -109 -163 -5 -1 -15 -2 -23 -3 -7 0 -21 -16 -29 -33 -9 -18
-52 -89 -96 -158 -94 -145 -134 -226 -126 -252 6 -18 -51 -135 -82 -170 -8 -9
-34 -47 -57 -83 -22 -36 -63 -102 -91 -145 -30 -48 -57 -80 -67 -80 -10 0 -25
-19 -39 -47 -12 -27 -32 -59 -44 -73 -12 -14 -30 -47 -40 -73 -25 -66 -46 -76
-94 -44 -43 28 -150 196 -253 396 -33 64 -66 125 -74 135 -7 10 -11 31 -8 45
4 21 -12 55 -79 161 -46 74 -99 161 -118 194 -19 32 -62 90 -96 128 -44 49
-63 79 -63 97 0 27 -24 70 -46 84 -7 4 -29 41 -49 82 -20 41 -55 103 -78 137
-23 35 -47 75 -54 91 -7 15 -26 35 -43 45 -16 9 -30 23 -30 30 0 7 -20 41 -44
75 -71 101 -140 229 -138 255 2 24 -44 117 -98 197 -15 22 -35 52 -44 68 -9
15 -25 27 -35 27 -20 0 -40 35 -35 65 4 27 -36 95 -57 95 -9 0 -22 13 -29 30
-20 48 -95 119 -157 148 l-58 27 -528 -2 -528 -1 -57 -29 -57 -28 2 -2080 c1
-1144 3 -2101 4 -2127 2 -27 6 -48 9 -48 10 0 12 -48 10 -170 -1 -85 7 -149
22 -167 6 -7 7 -13 2 -13 -5 0 -4 -4 3 -8 6 -4 13 -36 16 -72 3 -36 6 -66 6
-68 1 -2 5 -1 10 3 6 3 8 -4 6 -15 -2 -11 0 -20 6 -20 5 0 9 -7 9 -15 0 -8 6
-15 13 -15 9 0 9 -2 -1 -9 -10 -6 -5 -11 17 -21 17 -7 29 -16 26 -20 -3 -4 6
-11 20 -14 14 -4 25 -11 25 -16 0 -6 7 -10 16 -10 8 0 13 -4 9 -9 -4 -8 22
-23 45 -26 3 0 12 -5 20 -10 18 -12 915 -14 959 -2 17 4 36 17 43 30 9 17 13
310 15 1286 2 770 7 1269 12 1274 20 20 40 -4 90 -102 70 -137 91 -174 107
-186 15 -10 36 -47 73 -125 12 -25 30 -54 40 -65 10 -11 22 -31 26 -45 4 -14
20 -42 36 -62 16 -20 29 -41 29 -46 0 -4 27 -50 60 -102 33 -51 69 -118 80
-147 11 -30 36 -79 55 -109 19 -30 35 -65 35 -77 0 -13 27 -65 61 -117 34 -51
66 -104 72 -117 5 -13 14 -23 18 -23 4 0 17 -20 27 -43 11 -24 34 -54 51 -66
17 -12 31 -29 31 -37 0 -8 15 -35 34 -61 49 -70 76 -128 76 -165 0 -44 104
-216 218 -363 22 -27 46 -69 55 -92 9 -22 50 -92 91 -154 41 -61 78 -124 81
-139 8 -34 59 -96 95 -115 34 -17 76 -6 87 22 4 10 41 72 83 139 42 67 87 149
99 182 13 34 31 64 40 67 9 2 72 98 141 212 341 564 330 545 330 585 0 34 28
78 51 78 21 0 89 151 89 197 0 14 10 27 27 35 15 7 40 36 56 63 121 205 216
376 226 406 6 19 34 76 63 125 28 49 66 121 84 159 103 214 168 324 223 372
l26 23 7 -25 c3 -14 5 -608 4 -1321 -1 -896 1 -1300 8 -1309 6 -7 27 -17 46
-22 43 -11 1150 -11 1168 0 6 5 20 23 29 40 16 30 17 191 19 2241 1 1215 5
2239 9 2275 3 36 8 80 10 96 3 17 5 80 6 141 2 96 -1 117 -20 156 -14 29 -32
50 -50 57 -30 13 -1040 21 -1159 10z"/>
<path d="M8677 6114 c-1 -1 -40 -4 -87 -7 -91 -7 -172 -20 -260 -42 -30 -8
-86 -16 -125 -19 -95 -8 -121 -14 -185 -44 -37 -16 -83 -27 -140 -32 -89 -8
-178 -38 -315 -107 -38 -19 -89 -44 -112 -55 -24 -11 -43 -24 -43 -29 0 -11
-106 -82 -147 -98 -29 -12 -124 -103 -235 -226 -52 -58 -118 -176 -118 -211 0
-13 -9 -47 -21 -76 -71 -179 -101 -327 -103 -513 -2 -288 48 -471 187 -687 32
-48 57 -96 57 -106 0 -10 11 -29 24 -41 13 -12 26 -35 29 -49 15 -74 474 -377
585 -386 20 -2 48 -7 62 -10 14 -3 38 -9 54 -11 16 -3 47 -14 70 -24 46 -21
124 -46 176 -57 19 -4 40 -9 45 -10 31 -9 278 -54 321 -59 28 -3 59 -7 70 -9
10 -2 48 -7 84 -11 36 -3 76 -8 90 -10 14 -2 59 -7 100 -10 41 -4 89 -9 105
-11 17 -2 59 -6 95 -9 36 -3 76 -8 90 -10 14 -2 52 -7 85 -10 33 -3 69 -8 80
-10 11 -2 23 -4 28 -4 4 -1 7 -8 7 -16 0 -14 42 -30 112 -41 20 -4 47 -17 59
-30 12 -13 27 -24 33 -24 6 0 39 -22 73 -50 146 -118 173 -313 67 -481 -30
-48 -148 -167 -204 -205 -19 -13 -47 -33 -61 -45 -19 -15 -214 -77 -244 -78
-3 0 -24 -3 -48 -6 -83 -12 -103 -14 -187 -15 -47 -1 -116 4 -153 10 -38 7
-84 10 -102 7 -24 -4 -35 -1 -39 9 -8 20 -40 31 -111 37 -96 9 -227 45 -332
93 -17 8 -34 14 -38 14 -4 0 -75 29 -159 65 -183 78 -324 152 -471 248 -142
93 -205 119 -243 98 -11 -6 -42 -44 -69 -83 -78 -117 -250 -359 -291 -409 -20
-25 -55 -72 -77 -104 -22 -31 -45 -62 -50 -68 -23 -25 -37 -77 -31 -112 9 -44
38 -78 139 -162 45 -37 84 -70 87 -73 10 -12 225 -168 257 -186 17 -11 67 -40
112 -67 44 -26 92 -52 106 -57 14 -5 29 -20 34 -33 10 -25 59 -59 102 -72 13
-3 46 -18 72 -32 27 -14 97 -38 158 -54 60 -15 119 -33 131 -40 11 -6 40 -13
62 -14 23 -1 79 -13 126 -26 84 -23 91 -23 610 -23 570 -1 676 4 820 40 52 14
105 27 116 29 180 41 589 236 589 282 0 5 34 37 75 70 115 92 380 375 380 406
0 7 12 29 26 48 50 67 113 211 128 292 3 15 7 35 10 45 6 21 13 67 21 147 4
33 9 71 11 85 6 35 6 248 -1 293 -3 20 -7 54 -10 75 -19 135 -102 385 -137
413 -11 8 -28 34 -38 57 -30 67 -71 120 -173 226 -52 55 -93 105 -91 111 3 7
-21 32 -53 56 -43 32 -69 44 -98 46 -25 2 -45 9 -52 20 -24 36 -44 50 -71 51
-15 0 -61 16 -102 35 -174 80 -516 169 -772 202 -122 16 -181 22 -283 30 -33
3 -129 7 -213 10 -119 4 -164 10 -203 25 -27 11 -63 20 -79 20 -36 0 -182 51
-280 97 -97 47 -179 128 -211 210 -18 45 -23 79 -23 153 -1 88 1 100 32 162
43 88 114 152 234 210 85 42 104 47 233 63 77 9 158 19 180 23 22 3 97 6 166
6 122 0 128 -1 161 -26 37 -28 82 -38 189 -42 36 -2 81 -10 99 -19 18 -10 72
-26 119 -37 106 -25 225 -83 311 -150 166 -129 237 -165 294 -149 40 12 108
60 122 87 6 12 53 66 105 120 105 110 197 220 218 260 8 15 27 42 42 60 30 33
44 72 36 94 -2 7 13 37 34 67 22 30 39 63 39 74 0 34 -30 71 -101 122 -39 28
-76 55 -82 60 -7 6 -59 42 -117 81 -171 114 -429 227 -663 288 -79 21 -164 38
-182 37 -2 0 -19 5 -37 10 -18 5 -76 12 -128 14 -52 3 -120 7 -151 10 -177 15
-414 26 -422 19z"/>
</g>
</svg>
